<svg width="219" height="218" viewBox="0 0 219 218" fill="none" xmlns="http://www.w3.org/2000/svg">
<path d="M168.894 20.1106C169.202 20.3033 169.472 20.3804 169.723 20.3612C169.954 20.3226 170.166 20.207 170.301 19.9949C170.494 19.6866 170.243 19.5324 170.089 19.4167L165.386 16.352C165.232 16.2557 164.981 16.1015 164.789 16.3906C164.673 16.5833 164.519 16.9303 164.923 17.3736C164.923 17.3736 164.923 17.4121 164.943 17.4121L165.02 17.47L160.49 24.4474C160.24 24.8521 160.355 25.0256 160.683 25.2376L164.519 27.7241C164.866 27.9361 165.039 27.8975 165.251 27.5891L165.367 27.4157C165.579 27.088 165.54 26.9145 165.193 26.6832L161.994 24.6016L163.825 21.7875L165.945 23.1753C166.639 23.6186 167.121 23.3873 167.352 23.0403C167.545 22.7319 167.294 22.5777 167.159 22.4814L164.499 20.7659L166.118 18.2795L168.913 20.0913L168.894 20.1106Z" fill="#E6E4CE"/>
<path d="M172.171 25.9123C172.074 25.7581 171.978 25.6231 171.882 25.5075C171.188 24.6016 170.667 23.8884 171.207 23.0982C171.458 22.7127 171.747 22.5199 172.113 22.5007C172.498 22.5007 172.961 22.6548 173.501 23.0018C174.329 23.5415 174.696 24.0041 175.139 24.6016C175.139 24.6016 175.255 24.7365 175.312 24.7558C175.582 24.9293 175.756 24.6594 175.814 24.563C175.949 24.3703 176.083 24.0812 175.871 23.6379C175.582 23.0596 174.985 22.4236 174.156 21.9031C173.327 21.3827 172.575 21.1129 171.882 21.1707C171.111 21.2093 170.494 21.6333 169.993 22.3657C169.048 23.8113 169.858 25.122 170.764 26.317C171.438 27.2037 172.113 28.1096 171.4 29.1889C171.091 29.6708 170.667 29.9214 170.185 29.9599C169.742 29.9599 169.222 29.7865 168.682 29.4395C167.95 28.9576 167.333 28.283 166.909 27.4735C166.812 27.3193 166.755 27.2422 166.677 27.1844C166.581 27.1266 166.369 27.0687 166.157 27.3964C165.906 27.7819 165.926 28.1674 166.215 28.6878C166.6 29.3239 167.275 30.0177 168.046 30.5189C168.99 31.1357 169.838 31.4055 170.629 31.2899C171.419 31.1742 172.074 30.7116 172.595 29.9214C173.115 29.1311 173.25 28.4565 173.096 27.7433C172.942 27.0109 172.518 26.3748 172.151 25.9315L172.171 25.9123Z" fill="#E6E4CE"/>
<path d="M177.664 30.4033C177.587 30.2491 177.49 30.0949 177.413 29.9792C176.797 29.0155 176.334 28.283 176.912 27.5121C177.182 27.1458 177.49 26.9724 177.876 26.9724C178.261 26.9724 178.724 27.1844 179.225 27.5892C179.996 28.1867 180.343 28.6878 180.729 29.3046C180.729 29.3046 180.825 29.4395 180.883 29.4781C181.133 29.6708 181.326 29.4202 181.403 29.3239C181.538 29.1504 181.712 28.8613 181.538 28.418C181.307 27.8205 180.748 27.1458 179.958 26.5483C179.167 25.9508 178.435 25.6424 177.741 25.6424C176.97 25.6424 176.315 25.9894 175.775 26.7025C174.715 28.071 175.428 29.4395 176.238 30.6924C176.854 31.6176 177.452 32.5813 176.642 33.6028C176.295 34.0462 175.871 34.2774 175.37 34.2774C174.927 34.2582 174.426 34.0462 173.905 33.6414C173.212 33.1017 172.653 32.3885 172.286 31.5597C172.209 31.4055 172.151 31.3092 172.094 31.2513C171.997 31.1742 171.804 31.1164 171.554 31.4248C171.284 31.791 171.265 32.1765 171.515 32.7162C171.843 33.3715 172.479 34.1233 173.212 34.6822C174.098 35.3568 174.946 35.7038 175.736 35.6459C176.527 35.5881 177.221 35.1834 177.799 34.4316C178.377 33.6799 178.57 33.0246 178.473 32.2922C178.377 31.5597 177.992 30.8851 177.683 30.4033H177.664Z" fill="#E6E4CE"/>
<path d="M145.244 16.275C142.353 15.1764 142.97 12.4972 143.394 11.4178C143.818 10.3385 144.396 9.54819 145.128 9.0856C145.938 8.56519 146.94 8.50736 148.02 8.93141C149.099 9.35545 149.812 10.0301 150.063 10.9552C150.294 11.784 150.217 12.7671 149.793 13.8464C149.369 14.9258 148.81 15.6775 148.097 16.1401C147.287 16.6412 146.304 16.6991 145.225 16.275H145.244ZM151.316 10.4541C151.104 9.85659 150.757 9.3169 150.294 8.89286C149.812 8.43027 149.176 8.04477 148.444 7.77493C147.711 7.50509 146.96 7.35089 146.323 7.38944C145.687 7.38944 145.071 7.58218 144.512 7.89058C143.471 8.46882 142.642 9.52892 142.102 10.9552C141.563 12.3816 141.505 13.6922 141.89 14.7523C142.334 15.9666 143.317 16.8533 144.801 17.4122C147.653 18.4916 149.947 17.3737 151.104 14.3476C151.643 12.9212 151.701 11.572 151.316 10.4541Z" fill="#E6E4CE"/>
<path d="M179.977 39.3274C177.895 37.2458 179.63 35.1255 180.478 34.316C181.326 33.5065 182.174 33.0439 183.022 32.9282C183.967 32.774 184.873 33.121 185.644 33.9112C186.415 34.7015 186.742 35.5689 186.569 36.494C186.415 37.3036 185.894 38.1517 185.065 38.9419C184.237 39.7322 183.388 40.1948 182.56 40.3104C181.634 40.4453 180.729 40.0984 179.958 39.3274H179.977ZM187.899 36.5326C187.976 35.9158 187.899 35.3183 187.687 34.7593C187.455 34.1618 187.07 33.5836 186.55 33.0632C186.029 32.5428 185.432 32.1187 184.834 31.9067C184.256 31.6754 183.639 31.5983 183.003 31.6368C181.827 31.7332 180.632 32.3693 179.534 33.4101C178.435 34.4509 177.799 35.5881 177.683 36.6868C177.548 37.9204 178.03 39.0961 179.09 40.1755C181.133 42.2379 183.658 42.1222 185.991 39.8864C187.089 38.8263 187.745 37.6698 187.899 36.5326Z" fill="#E6E4CE"/>
<path d="M89.6369 1.8576L89.0394 1.97324C88.5961 2.06962 88.4804 2.20454 88.4226 2.59003L86.9577 10.4541C86.9577 10.4541 86.9384 10.6661 86.9192 10.7817C86.8806 10.6854 86.8035 10.5697 86.765 10.4926L82.4282 3.82361C82.2162 3.49594 82.062 3.41884 81.6572 3.49594L80.1345 3.80433C79.9418 3.84288 79.6334 3.9007 79.6912 4.26692C79.7297 4.47894 79.9032 4.84516 80.5007 4.86443H80.5393L80.6356 4.84516L82.3125 13.0754C82.3896 13.4416 82.5438 13.5766 82.9486 13.4995L83.1992 13.4416C83.5654 13.3645 83.7003 13.1718 83.6232 12.8056L82.3896 6.77262C82.3511 6.5606 82.2547 6.25221 82.1969 5.92454L86.5144 12.4201C86.6493 12.6514 86.8228 12.7285 87.1119 12.6706L87.4589 12.5936C87.6323 12.555 87.8636 12.4586 87.9407 12.131L89.4056 4.40184L89.6176 5.38485L90.8319 11.3407C90.909 11.7069 91.1017 11.8418 91.468 11.7647L91.7185 11.7069C92.0848 11.6298 92.2004 11.4563 92.1233 11.0709L90.3308 2.33946C90.2344 1.89615 90.0802 1.79977 89.6369 1.87687V1.8576Z" fill="#E6E4CE"/>
<path d="M126.49 1.76124L125.892 1.68415C125.449 1.62632 125.295 1.72269 125.121 2.06964L121.189 9.02777C121.189 9.02777 121.093 9.22052 121.035 9.31689C121.035 9.20124 120.997 9.08559 120.977 8.98922L119.031 1.27938C118.934 0.913161 118.819 0.778239 118.395 0.720415L116.853 0.527669C116.66 0.508395 116.332 0.469845 116.294 0.816788C116.274 1.04808 116.294 1.43358 116.872 1.6456H116.91H117.007L115.947 9.97223C115.889 10.3577 116.005 10.5312 116.409 10.5697L116.66 10.6083C117.045 10.6661 117.219 10.5119 117.257 10.1457L118.048 4.03565C118.067 3.80435 118.086 3.49596 118.144 3.16829L120.129 10.7047C120.187 10.9552 120.322 11.0902 120.611 11.1287L120.977 11.1673C121.151 11.1865 121.401 11.1673 121.575 10.8781L125.468 4.05492L125.333 5.0572L124.562 11.0902C124.505 11.4756 124.659 11.6491 125.025 11.6877L125.276 11.7262C125.661 11.784 125.815 11.6298 125.854 11.2636L126.991 2.41658C127.049 1.97326 126.933 1.81907 126.49 1.76124Z" fill="#E6E4CE"/>
<path d="M141.601 5.1535L141.004 4.99931C140.56 4.88366 140.406 4.96076 140.194 5.28843L135.453 11.7261C135.453 11.7261 135.337 11.8996 135.26 11.996C135.26 11.8803 135.26 11.7647 135.26 11.6683L134.258 3.78501C134.219 3.39952 134.103 3.26459 133.699 3.14895L132.195 2.76345C132.002 2.70563 131.694 2.62853 131.598 2.99475C131.54 3.20677 131.54 3.61154 132.06 3.88138H132.099L132.195 3.91993L130.133 12.0538C130.036 12.42 130.133 12.6128 130.518 12.7091L130.75 12.767C131.116 12.8633 131.309 12.7477 131.405 12.3815L132.928 6.40635C132.985 6.19433 133.043 5.88594 133.12 5.55827L134.18 13.2874C134.2 13.5572 134.335 13.6922 134.624 13.7693L134.971 13.8656C135.144 13.9042 135.395 13.9235 135.607 13.6536L140.29 7.35081L140.04 8.33381L138.537 14.2318C138.44 14.5981 138.556 14.7908 138.922 14.8872L139.153 14.945C139.52 15.0414 139.693 14.9257 139.789 14.5402L141.987 5.90521C142.102 5.4619 141.987 5.3077 141.563 5.19205L141.601 5.1535Z" fill="#E6E4CE"/>
<path d="M162.977 14.6945L162.437 14.4246C162.032 14.2126 161.859 14.2512 161.589 14.521L155.517 19.7252C155.517 19.7252 155.363 19.8794 155.267 19.9565C155.305 19.8408 155.305 19.7252 155.325 19.6288L156.134 11.7069C156.173 11.3214 156.115 11.1672 155.73 10.9745L154.342 10.2613C154.168 10.165 153.879 10.03 153.725 10.3384C153.629 10.5312 153.532 10.9167 153.995 11.3022H154.033L154.11 11.36L150.275 18.8193C150.101 19.1662 150.14 19.3589 150.506 19.5517L150.718 19.6673C151.065 19.8408 151.277 19.783 151.451 19.436L154.265 13.9428C154.361 13.75 154.496 13.4609 154.65 13.1525L153.956 20.9202C153.918 21.19 154.014 21.3442 154.265 21.4792L154.592 21.6526C154.747 21.7297 154.997 21.8068 155.267 21.5948L161.261 16.487L160.799 17.3929L158.023 22.7898C157.85 23.1368 157.908 23.3488 158.254 23.5223L158.466 23.6379C158.813 23.8114 159.006 23.7343 159.18 23.3873L163.247 15.4655C163.459 15.0607 163.401 14.8872 162.996 14.6752L162.977 14.6945Z" fill="#E6E4CE"/>
<path d="M93.299 1.24078L92.2582 1.37571C92.0655 1.39498 91.7763 1.43353 91.8149 1.79975C91.8534 2.03104 91.9691 2.39726 92.5666 2.45508H92.6052H92.7015L93.7809 10.7624C93.8387 11.1672 94.0122 11.3021 94.417 11.2443L94.6675 11.2058C95.0723 11.1479 95.2072 10.9745 95.1494 10.5697L93.9929 1.78047C93.9351 1.35643 93.8195 1.18296 93.3183 1.26006L93.299 1.24078Z" fill="#E6E4CE"/>
<path d="M104.941 0.29636L103.881 0.33491C103.669 0.33491 103.38 0.33491 103.399 0.720402C103.399 0.951697 103.495 1.31791 104.074 1.43356H104.112H104.209L104.517 9.79874C104.517 10.2035 104.69 10.3577 105.095 10.3384H105.346C105.75 10.3192 105.905 10.1457 105.885 9.74092L105.558 0.874599C105.558 0.450557 105.442 0.277086 104.922 0.29636H104.941Z" fill="#E6E4CE"/>
<path d="M101.452 3.63087C101.549 4.92227 100.835 5.6547 99.332 5.75108L98.0213 5.84745L97.7514 2.06963L99.0621 1.97325C99.7945 1.91543 100.373 2.0118 100.758 2.28165C101.163 2.57077 101.394 3.01408 101.433 3.63087H101.452ZM103.437 9.47108C103.264 9.47108 103.148 9.49035 102.917 9.14341L101.24 6.52206C101.78 6.29077 102.185 5.94382 102.435 5.50051C102.782 4.98009 102.917 4.32476 102.859 3.5345C102.782 2.53222 102.397 1.78051 101.645 1.29864C100.97 0.874602 100.045 0.701131 98.9657 0.778229L95.9974 0.99025C95.8047 0.99025 95.5156 1.0288 95.5349 1.37574C95.5349 1.60704 95.6698 1.97325 96.2287 2.06963H96.2673H96.3637L96.9612 10.3577C96.9805 10.7625 97.1539 10.8974 97.5587 10.8781H97.8285C98.2719 10.8203 98.3489 10.6276 98.3297 10.2613L98.0984 7.04248L99.4091 6.9461C99.5825 6.9461 99.7945 6.88828 99.9487 6.88828L101.703 9.74092C102.088 10.3384 102.454 10.5697 103.033 10.5119C103.861 10.4541 103.881 9.91439 103.881 9.74092C103.861 9.43253 103.553 9.4518 103.437 9.4518V9.47108Z" fill="#E6E4CE"/>
<path d="M112.227 0.701116C112.13 0.411997 112.015 0.296349 111.629 0.277075L110.164 0.238525C109.991 0.238525 109.663 0.238525 109.663 0.585468C109.663 0.816764 109.74 1.20226 110.319 1.33718H110.357L106.907 9.60598C106.83 9.76018 106.83 9.8951 106.907 10.0108C106.965 10.1071 107.1 10.1649 107.292 10.1842H107.659C107.967 10.1842 108.16 10.1457 108.295 9.77946L111.379 2.22381L114.019 9.93365C114.154 10.2613 114.251 10.377 114.617 10.377H115.041C115.214 10.377 115.33 10.3577 115.407 10.242C115.503 10.1264 115.503 9.99148 115.446 9.83728L112.227 0.681841V0.701116Z" fill="#E6E4CE"/>
<path d="M196.226 171.667C196.013 171.956 195.936 172.226 195.956 172.496C195.975 172.727 196.11 172.958 196.303 173.093C196.592 173.305 196.765 173.055 196.881 172.9L200.1 168.294C200.196 168.14 200.37 167.908 200.08 167.696C199.888 167.561 199.541 167.407 199.097 167.812C199.097 167.812 199.059 167.812 199.059 167.831L199.001 167.908L192.178 163.148C191.792 162.878 191.6 162.993 191.388 163.302L188.766 167.06C188.535 167.388 188.574 167.581 188.882 167.793L189.055 167.908C189.364 168.12 189.556 168.101 189.788 167.754L191.966 164.632L194.703 166.54L193.257 168.621C192.775 169.296 193.007 169.797 193.354 170.029C193.643 170.241 193.816 169.99 193.913 169.855L195.724 167.253L198.153 168.949L196.245 171.667H196.226Z" fill="#E6E4CE"/>
<path d="M190.327 174.751C190.482 174.654 190.616 174.577 190.732 174.481C191.677 173.826 192.39 173.324 193.18 173.883C193.546 174.153 193.739 174.442 193.758 174.809C193.758 175.194 193.585 175.657 193.219 176.177C192.66 176.987 192.178 177.334 191.58 177.758C191.58 177.758 191.445 177.854 191.407 177.912C191.214 178.182 191.484 178.355 191.58 178.432C191.773 178.567 192.062 178.702 192.505 178.529C193.084 178.278 193.72 177.7 194.279 176.89C194.838 176.081 195.127 175.329 195.088 174.635C195.088 173.864 194.683 173.228 193.951 172.708C192.525 171.705 191.195 172.476 189.98 173.344C189.075 173.999 188.149 174.635 187.089 173.883C186.627 173.556 186.376 173.132 186.357 172.65C186.357 172.207 186.55 171.705 186.935 171.146C187.436 170.433 188.13 169.836 188.959 169.431C189.113 169.335 189.19 169.296 189.248 169.219C189.306 169.123 189.383 168.911 189.055 168.699C188.689 168.429 188.284 168.429 187.764 168.699C187.128 169.065 186.395 169.72 185.875 170.472C185.239 171.397 184.93 172.245 185.027 173.035C185.123 173.826 185.567 174.5 186.318 175.04C187.07 175.58 187.745 175.734 188.477 175.618C189.209 175.483 189.865 175.078 190.327 174.732V174.751Z" fill="#E6E4CE"/>
<path d="M185.644 180.09C185.798 180.013 185.952 179.936 186.068 179.859C187.051 179.28 187.802 178.837 188.554 179.435C188.901 179.724 189.075 180.032 189.055 180.418C189.036 180.803 188.805 181.246 188.4 181.747C187.783 182.499 187.263 182.827 186.646 183.193C186.646 183.193 186.511 183.289 186.473 183.347C186.26 183.598 186.511 183.791 186.607 183.868C186.781 184.022 187.051 184.176 187.513 184.022C188.111 183.81 188.785 183.289 189.422 182.518C190.058 181.747 190.385 181.034 190.405 180.321C190.443 179.55 190.096 178.895 189.422 178.317C188.072 177.218 186.704 177.873 185.412 178.644C184.468 179.223 183.485 179.781 182.483 178.953C182.039 178.586 181.847 178.162 181.847 177.661C181.885 177.218 182.116 176.717 182.54 176.216C183.099 175.541 183.832 175.001 184.68 174.654C184.834 174.577 184.931 174.539 184.988 174.462C185.065 174.365 185.143 174.173 184.834 173.922C184.487 173.633 184.082 173.594 183.543 173.826C182.868 174.134 182.097 174.751 181.519 175.445C180.806 176.312 180.44 177.141 180.478 177.931C180.497 178.721 180.902 179.435 181.615 180.032C182.328 180.63 182.984 180.842 183.735 180.764C184.468 180.687 185.162 180.34 185.644 180.032V180.09Z" fill="#E6E4CE"/>
<path d="M200.851 148.152C202.046 145.299 204.687 146.012 205.786 146.456C206.884 146.899 207.617 147.516 208.06 148.268C208.561 149.096 208.581 150.079 208.118 151.178C207.655 152.277 206.961 152.932 206.017 153.163C205.188 153.375 204.205 153.24 203.145 152.797C202.085 152.354 201.353 151.756 200.909 151.024C200.427 150.195 200.408 149.212 200.851 148.152ZM206.46 154.416C207.077 154.223 207.617 153.896 208.06 153.452C208.542 152.99 208.947 152.354 209.236 151.641C209.525 150.927 209.698 150.176 209.679 149.52C209.679 148.884 209.525 148.267 209.236 147.689C208.696 146.629 207.655 145.762 206.248 145.184C204.841 144.605 203.55 144.49 202.451 144.856C201.237 145.261 200.312 146.224 199.695 147.689C198.519 150.503 199.56 152.836 202.548 154.088C203.955 154.667 205.304 154.782 206.441 154.435L206.46 154.416Z" fill="#E6E4CE"/>
<path d="M176.662 182.114C178.82 180.109 180.883 181.902 181.654 182.788C182.425 183.675 182.868 184.523 182.965 185.39C183.08 186.335 182.714 187.221 181.904 187.992C181.095 188.763 180.208 189.033 179.283 188.821C178.474 188.648 177.645 188.108 176.893 187.241C176.141 186.373 175.698 185.525 175.602 184.696C175.505 183.771 175.871 182.885 176.662 182.133V182.114ZM179.206 190.132C179.823 190.228 180.42 190.17 180.999 189.978C181.615 189.766 182.194 189.4 182.733 188.898C183.273 188.397 183.697 187.819 183.948 187.221C184.198 186.643 184.294 186.046 184.275 185.41C184.217 184.234 183.639 183.02 182.618 181.882C181.596 180.745 180.497 180.071 179.399 179.916C178.165 179.743 176.97 180.167 175.871 181.208C173.751 183.193 173.771 185.699 175.929 188.108C176.951 189.245 178.088 189.939 179.225 190.113L179.206 190.132Z" fill="#E6E4CE"/>
<path d="M217.081 93.0458L216.984 92.4482C216.907 92.0049 216.772 91.8893 216.406 91.8122L208.6 90.0775C208.6 90.0775 208.388 90.0389 208.272 90.0196C208.388 89.9811 208.484 89.9233 208.561 89.8847L215.365 85.7792C215.693 85.5865 215.789 85.4323 215.712 85.0082L215.442 83.4855C215.404 83.2928 215.346 82.9844 214.999 83.0422C214.768 83.0808 214.421 83.235 214.382 83.8325V83.871L214.401 83.9674L206.133 85.3745C205.747 85.4323 205.632 85.6058 205.689 85.9913L205.728 86.2418C205.786 86.6273 205.978 86.743 206.345 86.6851L212.416 85.6443C212.647 85.6058 212.937 85.5287 213.284 85.4708L206.653 89.5763C206.422 89.7112 206.345 89.8847 206.383 90.1738L206.441 90.5208C206.48 90.6943 206.557 90.9255 206.884 91.0219L214.556 92.7566L213.553 92.9301L207.559 93.9517C207.173 94.0095 207.058 94.2022 207.116 94.5684L207.154 94.819C207.212 95.2045 207.405 95.3009 207.771 95.2431L216.56 93.7396C217.004 93.6625 217.119 93.5083 217.042 93.065L217.081 93.0458Z" fill="#E6E4CE"/>
<path d="M215.963 129.899L216.059 129.301C216.136 128.858 216.059 128.704 215.712 128.511L208.889 124.348C208.889 124.348 208.696 124.251 208.6 124.194C208.715 124.194 208.831 124.155 208.927 124.155L216.695 122.478C217.081 122.401 217.196 122.285 217.273 121.861L217.524 120.319C217.562 120.127 217.601 119.799 217.254 119.741C217.023 119.703 216.637 119.741 216.406 120.281V120.319L216.387 120.416L208.099 119.066C207.713 119.009 207.54 119.105 207.482 119.51L207.443 119.76C207.385 120.146 207.52 120.319 207.887 120.377L213.977 121.36C214.209 121.399 214.517 121.418 214.845 121.476L207.251 123.211C207 123.268 206.865 123.403 206.807 123.692L206.749 124.039C206.73 124.213 206.73 124.463 207.019 124.656L213.727 128.781L212.725 128.627L206.73 127.663C206.345 127.605 206.171 127.74 206.113 128.106L206.075 128.357C206.017 128.742 206.152 128.897 206.518 128.954L215.327 130.381C215.77 130.458 215.924 130.342 216.001 129.899H215.963Z" fill="#E6E4CE"/>
<path d="M212.069 144.875L212.243 144.297C212.358 143.873 212.3 143.699 211.992 143.468L205.709 138.515C205.709 138.515 205.535 138.399 205.439 138.322C205.554 138.322 205.67 138.322 205.766 138.322L213.688 137.589C214.074 137.551 214.209 137.454 214.344 137.05L214.768 135.566C214.825 135.373 214.903 135.064 214.575 134.968C214.363 134.91 213.958 134.891 213.669 135.411V135.45L213.63 135.527L205.574 133.195C205.207 133.079 205.015 133.175 204.899 133.561L204.822 133.792C204.706 134.158 204.822 134.351 205.188 134.467L211.105 136.182C211.317 136.24 211.626 136.317 211.953 136.414L204.205 137.223C203.935 137.223 203.781 137.358 203.704 137.647L203.608 137.994C203.55 138.168 203.53 138.418 203.8 138.63L209.949 143.526L208.985 143.237L203.145 141.541C202.779 141.425 202.586 141.541 202.47 141.907L202.393 142.138C202.278 142.504 202.393 142.678 202.76 142.793L211.317 145.261C211.741 145.376 211.915 145.299 212.05 144.856L212.069 144.875Z" fill="#E6E4CE"/>
<path d="M201.834 165.942L202.124 165.403C202.336 165.017 202.316 164.844 202.066 164.535L197.054 158.29C197.054 158.29 196.919 158.136 196.842 158.04C196.958 158.078 197.074 158.098 197.17 158.117L205.053 159.177C205.439 159.235 205.593 159.177 205.805 158.791L206.557 157.442C206.653 157.269 206.807 156.999 206.499 156.806C206.306 156.691 205.921 156.594 205.516 157.037V157.076L205.458 157.153L198.114 153.067C197.787 152.874 197.575 152.913 197.382 153.279L197.266 153.491C197.074 153.819 197.151 154.031 197.478 154.223L202.875 157.23C203.068 157.346 203.357 157.481 203.646 157.635L195.917 156.671C195.667 156.633 195.474 156.71 195.339 156.96L195.165 157.269C195.069 157.423 194.992 157.674 195.204 157.943L200.1 164.092L199.213 163.591L193.893 160.642C193.566 160.449 193.354 160.526 193.161 160.854L193.045 161.066C192.852 161.394 192.93 161.586 193.257 161.779L201.044 166.116C201.43 166.328 201.622 166.289 201.834 165.884V165.942Z" fill="#E6E4CE"/>
<path d="M217.582 96.7272L217.485 95.6671C217.466 95.4744 217.428 95.166 217.081 95.2045C216.849 95.2238 216.483 95.3394 216.406 95.9177V95.9562V96.0526L208.06 96.8621C207.655 96.9007 207.52 97.0742 207.559 97.4789V97.7295C207.617 98.1343 207.79 98.2692 208.195 98.2306L217.023 97.3633C217.447 97.3247 217.62 97.2091 217.562 96.7079L217.582 96.7272Z" fill="#E6E4CE"/>
<path d="M218.121 108.408V107.347C218.121 107.135 218.121 106.846 217.755 106.846C217.524 106.846 217.138 106.923 217.023 107.502V107.54V107.637L208.638 107.675C208.234 107.675 208.079 107.829 208.079 108.234V108.485C208.079 108.889 208.234 109.044 208.638 109.044L217.505 109.005C217.929 109.005 218.121 108.909 218.102 108.388L218.121 108.408Z" fill="#E6E4CE"/>
<path d="M214.922 104.803C213.63 104.861 212.917 104.129 212.859 102.625L212.802 101.315L216.579 101.16L216.637 102.471C216.656 103.203 216.56 103.782 216.271 104.167C215.982 104.553 215.519 104.784 214.903 104.803H214.922ZM209.024 106.596C209.024 106.422 209.024 106.307 209.371 106.095L212.031 104.514C212.262 105.073 212.59 105.478 213.014 105.748C213.515 106.114 214.17 106.268 214.96 106.23C215.963 106.191 216.734 105.825 217.235 105.092C217.678 104.418 217.89 103.531 217.852 102.432L217.736 99.4642C217.736 99.2715 217.736 98.9631 217.35 98.9823C217.119 98.9823 216.753 99.098 216.637 99.657V99.6955V99.7919L208.33 100.12C207.925 100.12 207.771 100.293 207.79 100.698V100.968C207.809 101.411 208.021 101.488 208.388 101.488L211.607 101.372L211.664 102.683C211.664 102.857 211.703 103.069 211.703 103.223L208.792 104.88C208.176 105.247 207.944 105.613 207.964 106.191C208.002 107.02 208.542 107.058 208.715 107.058C209.024 107.058 209.024 106.731 209.004 106.615L209.024 106.596Z" fill="#E6E4CE"/>
<path d="M217.485 115.674C217.774 115.578 217.909 115.481 217.929 115.096L218.025 113.631C218.025 113.458 218.064 113.13 217.697 113.111C217.466 113.111 217.081 113.168 216.907 113.747V113.785L208.754 110.065C208.6 109.988 208.465 109.988 208.349 110.065C208.253 110.123 208.176 110.258 208.176 110.431V110.798C208.137 111.106 208.176 111.299 208.542 111.453L216.001 114.788L208.195 117.178C207.867 117.293 207.752 117.39 207.732 117.756V118.18C207.694 118.353 207.732 118.469 207.848 118.546C207.964 118.642 208.099 118.642 208.253 118.585L217.505 115.655L217.485 115.674Z" fill="#E6E4CE"/>
<path d="M48.582 197.437C48.2736 197.244 48.0037 197.167 47.7531 197.186C47.5219 197.225 47.2906 197.341 47.1556 197.553C46.9629 197.861 47.1942 198.015 47.3677 198.131L52.0321 201.234C52.1863 201.33 52.4176 201.504 52.6296 201.196C52.7453 201.003 52.9187 200.656 52.4947 200.213C52.4947 200.213 52.4947 200.174 52.4754 200.174L52.3983 200.116L57.005 193.177C57.2748 192.792 57.1399 192.599 56.8315 192.387L53.0151 189.843C52.6874 189.612 52.4947 189.65 52.2827 189.978L52.167 190.151C51.955 190.46 51.9936 190.652 52.3212 190.884L55.5015 193.004L53.6512 195.779L51.531 194.372C50.8371 193.91 50.3552 194.16 50.1239 194.488C49.9312 194.796 50.1625 194.951 50.3167 195.047L52.9573 196.801L51.319 199.268L48.5627 197.418L48.582 197.437Z" fill="#E6E4CE"/>
<path d="M45.3824 191.597C45.4788 191.751 45.5752 191.886 45.6523 192.002C46.3269 192.927 46.8473 193.621 46.3076 194.43C46.0571 194.816 45.7679 194.989 45.3824 195.028C44.997 195.028 44.5344 194.874 43.9947 194.507C43.1851 193.968 42.7996 193.486 42.3756 192.888C42.3756 192.888 42.26 192.753 42.2021 192.715C41.9323 192.541 41.7588 192.811 41.701 192.888C41.5661 193.081 41.4311 193.37 41.6432 193.813C41.913 194.411 42.5105 195.028 43.3393 195.567C44.1681 196.107 44.9199 196.377 45.6137 196.319C46.3847 196.281 47.0015 195.876 47.5026 195.143C48.4664 193.698 47.6761 192.387 46.7702 191.192C46.0956 190.305 45.4403 189.4 46.1727 188.32C46.5004 187.838 46.9051 187.607 47.387 187.568C47.8303 187.568 48.3507 187.742 48.8904 188.108C49.6036 188.59 50.2204 189.284 50.6444 190.093C50.7408 190.248 50.7986 190.325 50.8564 190.383C50.9528 190.44 51.1648 190.498 51.3768 190.19C51.6274 189.804 51.6274 189.419 51.3383 188.898C50.9721 188.262 50.2782 187.549 49.5265 187.048C48.6013 186.431 47.7339 186.142 46.9437 186.258C46.1534 186.354 45.4981 186.817 44.9584 187.607C44.4187 188.397 44.2838 189.053 44.438 189.785C44.5729 190.517 44.997 191.154 45.3632 191.616L45.3824 191.597Z" fill="#E6E4CE"/>
<path d="M39.9278 187.029C40.0049 187.183 40.1012 187.337 40.1783 187.453C40.7758 188.417 41.2384 189.168 40.6409 189.92C40.3518 190.286 40.0434 190.44 39.6772 190.44C39.2917 190.44 38.8291 190.209 38.328 189.824C37.557 189.207 37.2293 188.725 36.8438 188.089C36.8438 188.089 36.7474 187.954 36.6896 187.915C36.4391 187.723 36.2463 187.973 36.1692 188.05C36.0343 188.224 35.8608 188.513 36.0343 188.956C36.2656 189.573 36.8245 190.228 37.5955 190.845C38.3665 191.462 39.0989 191.77 39.8121 191.77C40.5831 191.79 41.2384 191.443 41.7974 190.749C42.8768 189.38 42.1829 188.012 41.3734 186.74C40.7758 185.795 40.1976 184.851 40.9879 183.829C41.3348 183.386 41.7781 183.174 42.26 183.174C42.7033 183.212 43.2044 183.424 43.7249 183.829C44.3995 184.369 44.9584 185.101 45.3246 185.93C45.4017 186.084 45.4596 186.181 45.5174 186.238C45.6138 186.316 45.8065 186.373 46.0571 186.084C46.3462 185.718 46.3655 185.333 46.1149 184.793C45.7872 184.138 45.1704 183.367 44.4573 182.808C43.5707 182.114 42.7418 181.767 41.9516 181.825C41.1613 181.863 40.4674 182.268 39.8699 183.02C39.2724 183.771 39.0989 184.407 39.176 185.159C39.2724 185.892 39.6386 186.566 39.947 187.048L39.9278 187.029Z" fill="#E6E4CE"/>
<path d="M72.1934 201.543C75.0846 202.68 74.41 205.34 73.9859 206.438C73.5619 207.537 72.9644 208.308 72.232 208.751C71.4224 209.272 70.4201 209.31 69.3215 208.867C68.2228 208.424 67.5482 207.749 67.2977 206.804C67.0664 205.976 67.182 204.993 67.5868 203.933C67.9915 202.872 68.5891 202.121 69.3022 201.658C70.1117 201.176 71.0948 201.118 72.1741 201.543H72.1934ZM66.0448 207.286C66.2568 207.884 66.6038 208.424 67.0471 208.867C67.529 209.349 68.165 209.734 68.8782 210.004C69.5913 210.274 70.343 210.428 70.9984 210.409C71.6344 210.409 72.2512 210.235 72.8295 209.927C73.8896 209.368 74.7184 208.308 75.2773 206.882C75.8363 205.455 75.9134 204.164 75.5279 203.084C75.1039 201.87 74.1209 200.964 72.6367 200.386C69.7841 199.268 67.4904 200.386 66.3147 203.374C65.7557 204.8 65.6786 206.149 66.0448 207.267V207.286Z" fill="#E6E4CE"/>
<path d="M37.7111 178.085C39.7735 180.186 38.0003 182.287 37.1522 183.097C36.3041 183.906 35.4367 184.35 34.5887 184.465C33.6442 184.6 32.7383 184.253 31.9673 183.463C31.1963 182.673 30.8879 181.786 31.0807 180.861C31.2542 180.051 31.7553 179.223 32.6034 178.432C33.4515 177.642 34.2803 177.199 35.1284 177.083C36.0535 176.967 36.9594 177.314 37.7111 178.085ZM29.7507 180.803C29.6736 181.42 29.7507 182.017 29.9435 182.576C30.1555 183.174 30.541 183.771 31.0614 184.292C31.5818 184.812 32.1793 185.236 32.7576 185.467C33.3358 185.699 33.9526 185.795 34.5887 185.757C35.7644 185.66 36.9594 185.063 38.0774 184.022C39.1953 182.981 39.8314 181.863 39.9663 180.764C40.1205 179.531 39.6579 178.355 38.5978 177.276C36.5739 175.194 34.049 175.271 31.6975 177.488C30.5795 178.529 29.9242 179.685 29.7507 180.822V180.803Z" fill="#E6E4CE"/>
<path d="M127.627 216.577L128.225 216.461C128.668 216.384 128.784 216.249 128.842 215.864L130.403 208.019C130.403 208.019 130.422 207.807 130.461 207.691C130.499 207.807 130.576 207.903 130.615 207.98L134.874 214.707C135.067 215.035 135.221 215.112 135.645 215.035L137.168 214.746C137.361 214.707 137.669 214.649 137.611 214.302C137.573 214.09 137.399 213.724 136.802 213.705H136.763L136.667 213.724L135.067 205.475C134.99 205.108 134.836 204.973 134.431 205.05L134.181 205.089C133.814 205.166 133.679 205.34 133.757 205.725L134.932 211.777C134.971 211.989 135.048 212.298 135.125 212.625L130.885 206.091C130.75 205.86 130.576 205.783 130.287 205.841L129.94 205.918C129.767 205.956 129.535 206.053 129.458 206.38L127.897 214.09L127.704 213.088L126.548 207.113C126.471 206.747 126.297 206.612 125.912 206.689L125.661 206.727C125.295 206.804 125.179 206.978 125.256 207.363L126.953 216.114C127.03 216.557 127.203 216.654 127.646 216.577H127.627Z" fill="#E6E4CE"/>
<path d="M90.7741 216.249L91.3716 216.326C91.8149 216.384 91.9691 216.288 92.1426 215.96L96.1517 209.04C96.1517 209.04 96.2481 208.848 96.3059 208.751C96.3059 208.867 96.3444 208.983 96.3444 209.079L98.1948 216.808C98.2719 217.174 98.3876 217.309 98.8116 217.367L100.354 217.579C100.546 217.598 100.874 217.656 100.913 217.29C100.951 217.059 100.913 216.673 100.354 216.461H100.315H100.219L101.375 208.154C101.433 207.768 101.317 207.595 100.913 207.537L100.662 207.498C100.276 207.441 100.103 207.575 100.045 207.961L99.1971 214.071C99.1585 214.302 99.1393 214.611 99.1007 214.938L97.2118 207.383C97.154 207.132 97.0191 206.997 96.7299 206.959L96.3637 206.901C96.1902 206.882 95.9397 206.901 95.7469 207.171L91.7764 213.955L91.9113 212.953L92.7594 206.939C92.8172 206.554 92.6823 206.38 92.2968 206.323L92.0462 206.284C91.6607 206.226 91.5065 206.361 91.468 206.747L90.2344 215.574C90.1766 216.018 90.2922 216.172 90.7355 216.23L90.7741 216.249Z" fill="#E6E4CE"/>
<path d="M75.7014 212.703L76.2796 212.857C76.7229 212.972 76.8771 212.895 77.0891 212.587L81.9078 206.207C81.9078 206.207 82.0234 206.034 82.1005 205.937C82.1005 206.053 82.1005 206.168 82.1005 206.265L83.0064 214.167C83.045 214.553 83.1414 214.688 83.5654 214.803L85.0688 215.208C85.2616 215.266 85.57 215.343 85.6663 214.996C85.7242 214.784 85.7434 214.379 85.2037 214.11H85.1652L85.0688 214.071L87.2276 205.956C87.3239 205.59 87.2276 205.397 86.8421 205.301L86.6108 205.243C86.2446 205.147 86.0518 205.243 85.9554 205.629L84.3749 211.585C84.3171 211.797 84.2593 212.105 84.1629 212.433L83.1992 204.704C83.1799 204.434 83.045 204.299 82.7751 204.222L82.4282 204.125C82.2547 204.087 82.0042 204.067 81.7921 204.337L77.0313 210.602L77.2819 209.619L78.8431 203.74C78.9395 203.374 78.8431 203.181 78.4576 203.084L78.2263 203.027C77.8601 202.93 77.6866 203.046 77.5903 203.412L75.2966 212.028C75.1809 212.471 75.2773 212.625 75.7206 212.741L75.7014 212.703Z" fill="#E6E4CE"/>
<path d="M54.4222 202.911L54.9619 203.2C55.3667 203.412 55.5401 203.374 55.8293 203.123L61.9586 197.977C61.9586 197.977 62.1128 197.823 62.2092 197.745C62.1706 197.861 62.1706 197.977 62.1321 198.073L61.2454 205.976C61.1876 206.361 61.2454 206.515 61.6502 206.727L63.0187 207.46C63.1922 207.556 63.4813 207.71 63.6355 207.383C63.7318 207.19 63.8475 206.804 63.3849 206.419H63.3464L63.2693 206.361L67.182 198.94C67.3555 198.594 67.3169 198.401 66.9507 198.208L66.7387 198.092C66.3917 197.919 66.1797 197.977 66.0063 198.324L63.1343 203.778C63.038 203.971 62.903 204.26 62.7488 204.569L63.5391 196.82C63.5777 196.55 63.4813 196.377 63.2307 196.242L62.903 196.069C62.7488 195.991 62.4983 195.914 62.2284 196.126L56.1762 201.157L56.6581 200.27L59.4914 194.893C59.6649 194.546 59.6071 194.334 59.2601 194.16L59.0481 194.045C58.7012 193.871 58.5084 193.948 58.335 194.276L54.1716 202.159C53.9596 202.564 54.0175 202.738 54.4222 202.95V202.911Z" fill="#E6E4CE"/>
<path d="M123.965 217.155L125.025 217.02C125.218 217.001 125.526 216.962 125.468 216.596C125.449 216.365 125.334 215.999 124.736 215.941H124.697H124.601L123.599 207.614C123.56 207.209 123.367 207.074 122.982 207.113L122.731 207.151C122.327 207.19 122.192 207.383 122.23 207.768L123.29 216.577C123.348 217.001 123.445 217.174 123.965 217.116V217.155Z" fill="#E6E4CE"/>
<path d="M112.304 217.964H113.364C113.576 217.926 113.865 217.926 113.846 217.56C113.846 217.328 113.769 216.962 113.171 216.827H113.133H113.036L112.824 208.462C112.824 208.057 112.651 207.903 112.246 207.922H111.996C111.591 207.922 111.437 208.096 111.456 208.501L111.687 217.367C111.687 217.791 111.783 217.964 112.304 217.964Z" fill="#E6E4CE"/>
<path d="M115.831 214.688C115.754 213.396 116.467 212.683 117.971 212.587L119.281 212.51L119.513 216.288L118.202 216.365C117.469 216.403 116.891 216.307 116.506 216.037C116.101 215.748 115.87 215.285 115.85 214.688H115.831ZM113.904 208.809C114.077 208.809 114.193 208.809 114.424 209.137L116.062 211.777C115.523 212.009 115.118 212.356 114.848 212.799C114.501 213.319 114.366 213.975 114.405 214.746C114.463 215.748 114.848 216.519 115.6 217.001C116.274 217.425 117.18 217.618 118.279 217.56L121.247 217.386C121.44 217.386 121.729 217.348 121.71 217.001C121.71 216.769 121.575 216.403 121.016 216.307H120.977H120.881L120.38 207.999C120.361 207.595 120.187 207.46 119.782 207.479H119.513C119.069 207.518 118.992 207.73 119.011 208.077L119.204 211.295L117.894 211.373C117.72 211.373 117.508 211.411 117.354 211.43L115.638 208.558C115.272 207.961 114.887 207.73 114.308 207.768C113.48 207.826 113.441 208.366 113.46 208.539C113.46 208.848 113.788 208.828 113.904 208.828V208.809Z" fill="#E6E4CE"/>
<path d="M105.018 217.483C105.114 217.772 105.23 217.887 105.616 217.907L107.08 217.965C107.254 217.965 107.582 217.984 107.582 217.618C107.582 217.386 107.524 217.001 106.946 216.847H106.907L110.453 208.616C110.531 208.462 110.531 208.327 110.453 208.212C110.396 208.115 110.261 208.038 110.087 208.038H109.721C109.413 208.019 109.22 208.077 109.085 208.424L105.905 215.941L103.36 208.192C103.245 207.865 103.129 207.749 102.763 207.749H102.339C102.165 207.73 102.05 207.749 101.973 207.884C101.876 208 101.876 208.134 101.934 208.289L105.057 217.483H105.018Z" fill="#E6E4CE"/>
<path d="M21.2121 48.0203C21.4048 47.7312 21.4819 47.442 21.4627 47.1915C21.4241 46.9602 21.3085 46.7289 21.0964 46.594C20.8073 46.4012 20.6338 46.6325 20.5182 46.806L17.3764 51.4704C17.2801 51.6246 17.1066 51.8559 17.415 52.0679C17.6077 52.2029 17.9547 52.3571 18.398 51.933C18.398 51.933 18.4365 51.933 18.4365 51.9138L18.4944 51.8367L25.3947 56.4818C25.7802 56.7517 25.9729 56.636 26.1849 56.3084L28.7485 52.5113C28.9798 52.1836 28.9412 51.9909 28.6135 51.7788L28.4401 51.6632C28.1317 51.4512 27.9389 51.4897 27.7076 51.8174L25.5681 54.9784L22.7926 53.1088L24.1997 51.0078C24.6622 50.314 24.4309 49.8321 24.084 49.6008C23.7949 49.4081 23.6214 49.6393 23.525 49.7935L21.7518 52.4149L19.2846 50.7573L21.135 48.001L21.2121 48.0203Z" fill="#E6E4CE"/>
<path d="M27.0522 44.8592C26.898 44.9556 26.7631 45.052 26.6475 45.1291C25.7223 45.8037 25.0091 46.3048 24.2189 45.7651C23.8334 45.5146 23.6599 45.2062 23.6406 44.84C23.6406 44.4545 23.8141 43.9919 24.161 43.4522C24.72 42.6426 25.1826 42.2764 25.7801 41.8524C25.7801 41.8524 25.915 41.7367 25.9536 41.6982C26.127 41.4283 25.8765 41.2549 25.7801 41.1971C25.5874 41.0621 25.2982 40.9272 24.8549 41.12C24.2767 41.3898 23.6599 41.9873 23.1009 42.7968C22.542 43.6064 22.2721 44.3774 22.3299 45.0712C22.3685 45.8422 22.754 46.4783 23.5057 46.9794C24.9513 47.9624 26.262 47.1529 27.4763 46.2663C28.3629 45.6109 29.2881 44.9556 30.3675 45.688C30.8493 46.0157 31.0806 46.4205 31.1192 46.9216C31.1192 47.3649 30.9457 47.8853 30.5602 48.425C30.0783 49.1382 29.3845 49.755 28.5749 50.179C28.4207 50.2754 28.3436 50.3139 28.2858 50.391C28.228 50.4874 28.1702 50.6994 28.4785 50.9115C28.864 51.162 29.2495 51.162 29.7699 50.8729C30.406 50.5067 31.1192 49.8321 31.6396 49.0611C32.2756 48.1359 32.5455 47.2686 32.4491 46.4783C32.3527 45.688 31.8901 45.0134 31.1192 44.493C30.3482 43.9726 29.6736 43.8184 28.9411 43.9533C28.2087 44.0882 27.5726 44.5123 27.11 44.8592H27.0522Z" fill="#E6E4CE"/>
<path d="M31.659 39.4238C31.5048 39.5009 31.3506 39.5973 31.2349 39.6744C30.2519 40.2719 29.5195 40.7345 28.7678 40.137C28.4015 39.8478 28.2473 39.5394 28.2473 39.1732C28.2666 38.7877 28.4786 38.3251 28.8834 37.824C29.5002 37.053 30.0013 36.7253 30.6181 36.3399C30.6181 36.3399 30.753 36.2435 30.7916 36.1857C30.9843 35.9351 30.7338 35.7423 30.6567 35.6652C30.4832 35.5303 30.1941 35.3568 29.7508 35.5303C29.1533 35.7423 28.4786 36.3013 27.8811 37.053C27.2836 37.8047 26.9367 38.5564 26.9367 39.2503C26.9174 40.0213 27.2643 40.6766 27.9582 41.2356C29.3075 42.315 30.6952 41.6211 31.9673 40.8308C32.9118 40.2333 33.8755 39.6551 34.8778 40.4646C35.3211 40.8116 35.5331 41.2549 35.5331 41.7367C35.4946 42.1801 35.2826 42.6812 34.8585 43.2016C34.3188 43.8762 33.5864 44.4352 32.7383 44.7821C32.5841 44.8592 32.4878 44.917 32.4299 44.9749C32.3528 45.0712 32.2757 45.264 32.5841 45.5146C32.9504 45.8037 33.3358 45.823 33.8755 45.5724C34.5309 45.2447 35.3019 44.6279 35.8608 43.9148C36.5547 43.0474 36.9016 42.1993 36.8631 41.4091C36.8245 40.6188 36.4198 39.9057 35.6873 39.3274C34.9549 38.7492 34.2996 38.5372 33.5671 38.6335C32.8347 38.7106 32.1601 39.0768 31.6782 39.4045L31.659 39.4238Z" fill="#E6E4CE"/>
<path d="M16.9909 71.6124C15.8537 74.4843 13.1938 73.8097 12.0952 73.3857C10.9965 72.9616 10.2448 72.3641 9.80152 71.6124C9.30038 70.7836 9.26183 69.8006 9.68587 68.7019C10.1099 67.6033 10.8231 66.9287 11.7483 66.6781C12.5771 66.4661 13.5601 66.5625 14.6202 66.9865C15.6803 67.4105 16.432 67.9888 16.8946 68.7212C17.3764 69.5307 17.415 70.533 16.9909 71.5931V71.6124ZM11.2857 65.4445C10.6689 65.6565 10.1485 65.9842 9.70515 66.4275C9.22328 66.9094 8.83779 67.5262 8.54867 68.2586C8.25955 68.9911 8.10535 69.7235 8.1439 70.3788C8.1439 71.0149 8.31737 71.6317 8.60649 72.2099C9.16546 73.27 10.2063 74.1181 11.6326 74.6771C13.0589 75.236 14.3503 75.3324 15.4297 74.9469C16.644 74.5229 17.5499 73.5591 18.1474 72.075C19.2654 69.2416 18.186 66.9287 15.1791 65.7336C13.7528 65.1747 12.4036 65.0783 11.2857 65.4445Z" fill="#E6E4CE"/>
<path d="M40.6023 37.2458C38.4821 39.2889 36.4005 37.5156 35.5909 36.6675C34.7814 35.8195 34.3381 34.9521 34.2417 34.0847C34.1068 33.1403 34.4537 32.2537 35.2633 31.4634C36.0728 30.6731 36.9402 30.4033 37.8654 30.596C38.6749 30.7695 39.5037 31.2899 40.294 32.138C41.0842 32.9861 41.5083 33.8342 41.6239 34.663C41.7395 35.5882 41.3926 36.4941 40.6023 37.2458ZM37.9425 29.2854C37.3257 29.2083 36.7281 29.2661 36.1692 29.4588C35.5717 29.6709 34.9742 30.0563 34.4537 30.5768C33.9333 31.0972 33.49 31.6754 33.278 32.2729C33.0274 32.8512 32.9503 33.4487 32.9889 34.0847C33.066 35.2605 33.6828 36.4748 34.7043 37.5927C35.7259 38.7106 36.8631 39.366 37.9617 39.5009C39.1953 39.6551 40.3711 39.1925 41.4697 38.1517C43.5514 36.1278 43.4935 33.6221 41.2962 31.2514C40.2554 30.1334 39.0989 29.4588 37.9617 29.2854H37.9425Z" fill="#E6E4CE"/>
<path d="M1.68688 126.988L1.80253 127.586C1.87963 128.029 2.01455 128.145 2.40004 128.203L10.2448 129.802C10.2448 129.802 10.4568 129.822 10.5725 129.86C10.4568 129.899 10.3605 129.976 10.2834 130.014L3.53724 134.236C3.20958 134.428 3.1132 134.582 3.20958 135.007L3.4987 136.529C3.53724 136.722 3.59507 137.03 3.94201 136.973C4.15403 136.934 4.52025 136.78 4.53952 136.163V136.124L4.52025 136.028L12.7698 134.467C13.1553 134.39 13.2709 134.236 13.1938 133.831L13.1553 133.58C13.0782 133.195 12.9047 133.079 12.5192 133.156L6.46699 134.293C6.25496 134.332 5.94657 134.409 5.59963 134.486L12.153 130.265C12.3843 130.13 12.4614 129.957 12.4036 129.667L12.3457 129.321C12.3072 129.147 12.2301 128.916 11.8831 128.839L4.19258 127.239L5.19486 127.046L11.17 125.928C11.5555 125.851 11.6711 125.678 11.594 125.292L11.5555 125.042C11.4784 124.656 11.3049 124.56 10.9194 124.637L2.14947 126.294C1.70616 126.372 1.59051 126.545 1.68688 126.969V126.988Z" fill="#E6E4CE"/>
<path d="M2.18804 90.116L2.09167 90.7135C2.03384 91.1568 2.11094 91.311 2.45789 91.5038L9.35819 95.5514C9.35819 95.5514 9.55094 95.6478 9.64731 95.7056C9.53167 95.7056 9.41602 95.7442 9.31964 95.7442L1.57125 97.556C1.20504 97.6331 1.07011 97.7487 1.01229 98.1728L0.780995 99.7148C0.742446 99.9075 0.703897 100.235 1.07011 100.274C1.30141 100.312 1.6869 100.274 1.89892 99.7148V99.6762L1.9182 99.5798L10.2256 100.775C10.611 100.833 10.7845 100.717 10.8423 100.312L10.8809 100.062C10.9387 99.6762 10.8038 99.5027 10.4183 99.4449L4.30825 98.5583C4.07695 98.5197 3.76856 98.5005 3.44089 98.4619L11.0158 96.5923C11.2664 96.5345 11.4013 96.3995 11.4591 96.1104L11.517 95.7635C11.5362 95.59 11.517 95.3394 11.2471 95.1467L4.48172 91.1376L5.484 91.2918L11.4977 92.1591C11.8832 92.2169 12.0566 92.082 12.1145 91.6965L12.153 91.446C12.2108 91.0605 12.0759 90.9063 11.6904 90.8484L2.86265 89.5763C2.41934 89.5185 2.26514 89.6341 2.20732 90.0775L2.18804 90.116Z" fill="#E6E4CE"/>
<path d="M5.81172 75.0818L5.65752 75.6601C5.54187 76.1034 5.61897 76.2576 5.92736 76.4696L12.288 81.3268C12.288 81.3268 12.4615 81.4424 12.5578 81.5195C12.4422 81.5195 12.3265 81.5195 12.2302 81.5195L4.32757 82.3869C3.94208 82.4254 3.80716 82.5218 3.69151 82.9459L3.28674 84.4493C3.22892 84.642 3.15182 84.9504 3.49876 85.0468C3.71078 85.1046 4.11555 85.1239 4.3854 84.5842V84.5456L4.42395 84.4493L12.5193 86.6466C12.8855 86.743 13.0782 86.6466 13.1746 86.2611L13.2324 86.0298C13.3288 85.6636 13.2324 85.4708 12.8469 85.3744L6.8911 83.7554C6.67907 83.6976 6.37068 83.6397 6.04301 83.5434L13.7914 82.5989C14.0612 82.5796 14.1962 82.4447 14.2733 82.1749L14.3696 81.8279C14.4082 81.6545 14.4467 81.4039 14.1769 81.1919L7.9512 76.3925L8.9342 76.6623L14.7937 78.2429C15.1599 78.3392 15.3526 78.2428 15.449 77.8574L15.5068 77.6261C15.6032 77.2598 15.5068 77.0864 15.1214 76.99L6.52488 74.6578C6.08156 74.5421 5.92736 74.6385 5.81172 75.0625V75.0818Z" fill="#E6E4CE"/>
<path d="M15.7189 53.8412L15.4297 54.3809C15.2177 54.7856 15.2563 54.9591 15.5068 55.2482L20.6146 61.3968C20.6146 61.3968 20.7688 61.551 20.8459 61.6474C20.7303 61.6088 20.6146 61.6088 20.5182 61.5703L12.6156 60.6451C12.2302 60.5873 12.076 60.6451 11.8639 61.0306L11.1315 62.3991C11.0351 62.5726 10.8809 62.8617 11.2086 63.0159C11.4013 63.1315 11.7868 63.2279 12.1916 62.7653V62.7268L12.2494 62.6497L19.6509 66.601C19.9978 66.7744 20.1906 66.7359 20.3833 66.3697L20.499 66.1576C20.6724 65.8107 20.6146 65.5987 20.2677 65.4252L14.8322 62.5147C14.6395 62.3991 14.3504 62.2835 14.042 62.1293L21.7904 62.9581C22.0602 62.9966 22.2337 62.9002 22.3686 62.6497L22.5421 62.3413C22.6192 62.1871 22.6963 61.9365 22.4842 61.6667L17.4921 55.5952L18.3788 56.077L23.7371 58.9489C24.084 59.1224 24.2961 59.0646 24.4695 58.7176L24.5852 58.5056C24.7586 58.1587 24.6815 57.9659 24.3539 57.7925L16.4898 53.5906C16.0851 53.3786 15.9116 53.4364 15.6996 53.8219L15.7189 53.8412Z" fill="#E6E4CE"/>
<path d="M1.10864 123.307L1.22429 124.367C1.24356 124.56 1.28211 124.868 1.64833 124.81C1.87963 124.791 2.24584 124.675 2.30367 124.078V124.039V123.943L10.6303 122.979C11.0351 122.941 11.17 122.767 11.1314 122.362V122.112C11.0543 121.707 10.8809 121.572 10.4761 121.611L1.66761 122.613C1.24356 122.671 1.07009 122.767 1.12792 123.288H1.10864V123.307Z" fill="#E6E4CE"/>
<path d="M0.376221 111.646V112.706C0.395495 112.918 0.41477 113.207 0.761713 113.188C0.993008 113.188 1.35923 113.111 1.49415 112.513V112.475V112.378L9.8786 112.205C10.2834 112.205 10.4376 112.031 10.4376 111.626V111.376C10.4376 110.971 10.2641 110.817 9.85933 110.817L0.993008 111.01C0.568967 111.01 0.395495 111.106 0.395495 111.626H0.376221V111.646Z" fill="#E6E4CE"/>
<path d="M3.63363 115.192C4.92503 115.115 5.63819 115.848 5.71529 117.332L5.79239 118.642L2.01456 118.854L1.93746 117.544C1.89892 116.811 1.99529 116.233 2.26513 115.848C2.55425 115.443 3.01684 115.231 3.61436 115.192H3.63363ZM9.51238 113.303C9.51238 113.477 9.51239 113.592 9.18472 113.824L6.5441 115.443C6.3128 114.903 5.98513 114.498 5.54182 114.229C5.0214 113.882 4.36607 113.727 3.59508 113.785C2.5928 113.843 1.82182 114.229 1.33995 114.961C0.915911 115.636 0.70389 116.542 0.780988 117.64L0.95446 120.608C0.95446 120.801 0.973734 121.09 1.33995 121.071C1.57125 121.071 1.93746 120.955 2.03384 120.377V120.339V120.242L10.3412 119.78C10.746 119.76 10.9002 119.587 10.8616 119.182V118.912C10.8231 118.469 10.611 118.392 10.2641 118.411L7.04524 118.585L6.96814 117.274C6.96814 117.1 6.92959 116.888 6.91031 116.734L9.8015 115.038C10.399 114.672 10.6303 114.306 10.611 113.708C10.5725 112.879 10.0328 112.841 9.84005 112.86C9.53166 112.86 9.55093 113.188 9.55093 113.303H9.51238Z" fill="#E6E4CE"/>
<path d="M0.896591 104.36C0.607472 104.456 0.491824 104.572 0.472549 104.957L0.414726 106.422C0.414726 106.596 0.395451 106.923 0.761669 106.923C0.992964 106.923 1.37846 106.866 1.53265 106.287V106.249L9.74364 109.834C9.89783 109.911 10.0328 109.911 10.1484 109.834C10.2448 109.776 10.3219 109.641 10.3219 109.468V109.101C10.3604 108.793 10.2833 108.6 9.93638 108.446L2.43856 105.227L10.2062 102.722C10.5339 102.606 10.6495 102.49 10.6688 102.143V101.719C10.6881 101.546 10.6688 101.43 10.5532 101.353C10.4375 101.257 10.3026 101.257 10.1484 101.315L0.954415 104.398L0.896591 104.36Z" fill="#E6E4CE"/>
<path d="M68.5311 8.89283C67.2397 6.52205 63.8667 5.5776 61.9585 7.79418C61.2261 8.12185 60.5707 8.60371 60.1852 9.25905C59.8961 9.77946 59.7226 10.3577 59.5684 10.9359C59.3757 11.572 59.2215 12.2273 59.0673 12.8634C58.9517 13.3453 58.8746 13.8464 58.7782 14.3283C58.7782 14.3283 58.7782 14.3283 58.7782 14.3475C57.853 12.7285 55.5979 11.8804 53.6897 11.9189C52.1863 11.9575 50.1624 12.2081 48.8903 13.0754C47.5604 13.9813 47.252 15.4847 47.4062 16.9882C47.5025 17.817 47.6567 18.6651 47.8109 19.4939C47.8495 19.6866 47.888 19.8986 47.9266 20.0914C47.6953 20.3805 47.5796 20.7082 47.7338 21.0551C48.8325 23.6379 51.1069 25.5268 53.8053 26.24C54.3643 26.3942 54.9425 26.452 55.5208 26.4905C56.6772 26.8375 57.8723 27.0688 59.0287 27.3772C59.607 27.5314 60.1659 27.6856 60.7056 27.9169C61.2839 28.1482 61.8043 28.4951 62.4404 28.5144C62.7295 28.5144 63.0186 28.4758 63.3077 28.3795C63.6547 28.4758 64.0016 28.5915 64.3485 28.6879C65.0424 28.8999 66.3917 28.2445 66.5073 27.4736C66.5844 27.0302 66.7579 26.6447 66.9506 26.2593C67.0277 26.1629 67.0855 26.0472 67.1048 25.9509C67.3168 25.5846 67.5289 25.2184 67.7023 24.8329C68.1071 23.9848 68.3769 23.0789 68.5697 22.173C68.6275 21.9225 68.6468 21.6719 68.6853 21.4213C69.1286 20.1492 69.437 18.8193 69.6105 17.47C69.9382 14.733 69.8804 11.36 68.5311 8.87356V8.89283ZM60.7635 17.8362C60.7635 17.8362 60.7635 17.817 60.7827 17.7977V17.8362H60.7635Z" fill="#E6E4CE"/>
<path d="M149.947 209.329C151.239 211.7 154.612 212.645 156.52 210.428C157.252 210.1 157.908 209.619 158.293 208.963C158.582 208.443 158.756 207.865 158.91 207.286C159.103 206.65 159.257 205.995 159.411 205.359C159.527 204.877 159.604 204.376 159.7 203.894C159.7 203.894 159.7 203.894 159.7 203.875C160.625 205.494 162.88 206.342 164.789 206.303C166.292 206.265 168.316 206.014 169.588 205.147C170.918 204.241 171.226 202.738 171.072 201.234C170.976 200.405 170.822 199.557 170.667 198.728C170.629 198.536 170.59 198.324 170.552 198.131C170.783 197.842 170.899 197.514 170.744 197.167C169.646 194.584 167.371 192.695 164.673 191.982C164.114 191.828 163.536 191.77 162.958 191.732C161.801 191.385 160.606 191.153 159.45 190.845C158.871 190.691 158.312 190.537 157.773 190.305C157.194 190.074 156.674 189.727 156.038 189.708C155.749 189.708 155.46 189.746 155.171 189.843C154.824 189.746 154.477 189.631 154.13 189.534C153.436 189.322 152.087 189.978 151.971 190.749C151.894 191.192 151.72 191.578 151.528 191.963C151.451 192.059 151.393 192.175 151.373 192.271C151.161 192.638 150.949 193.004 150.776 193.389C150.371 194.237 150.101 195.143 149.909 196.049C149.851 196.3 149.832 196.55 149.793 196.801C149.35 198.073 149.041 199.403 148.868 200.752C148.54 203.489 148.598 206.862 149.947 209.349V209.329ZM157.715 200.386C157.715 200.386 157.715 200.405 157.696 200.425V200.386H157.715Z" fill="#E6E4CE"/>
<path d="M209.448 68.4128C211.819 67.1214 212.763 63.7484 210.546 61.8402C210.219 61.1077 209.737 60.4524 209.082 60.0669C208.561 59.7778 207.983 59.6043 207.405 59.4501C206.769 59.2574 206.113 59.1032 205.477 58.949C204.995 58.8333 204.494 58.7562 204.012 58.6599C204.012 58.6599 204.012 58.6599 203.993 58.6599C205.612 57.7347 206.46 55.4796 206.422 53.5714C206.383 52.0679 206.133 50.0441 205.265 48.772C204.359 47.442 202.856 47.1336 201.352 47.2878C200.524 47.3842 199.676 47.5384 198.847 47.6926C198.654 47.7312 198.442 47.7697 198.249 47.8083C197.96 47.577 197.632 47.4613 197.286 47.6155C194.703 48.7142 192.814 50.9886 192.101 53.687C191.946 54.246 191.889 54.8242 191.85 55.4025C191.503 56.5589 191.272 57.754 190.963 58.9104C190.809 59.4887 190.655 60.0476 190.424 60.5873C190.192 61.1656 189.846 61.686 189.826 62.322C189.826 62.6112 189.865 62.9003 189.961 63.1894C189.865 63.5363 189.749 63.8833 189.653 64.2302C189.441 64.9241 190.096 66.2733 190.867 66.389C191.31 66.4661 191.696 66.6395 192.081 66.8323C192.178 66.9094 192.293 66.9672 192.39 66.9865C192.756 67.1985 193.122 67.4105 193.508 67.584C194.356 67.9888 195.262 68.2586 196.168 68.4514C196.418 68.5092 196.669 68.5285 196.919 68.567C198.191 69.0103 199.521 69.3187 200.871 69.4922C203.608 69.8199 206.981 69.762 209.467 68.4128H209.448ZM200.524 60.6451C200.524 60.6451 200.543 60.6451 200.562 60.6644H200.524V60.6451Z" fill="#E6E4CE"/>
<path d="M9.03049 149.809C6.65972 151.101 5.71526 154.474 7.93184 156.382C8.25951 157.115 8.74138 157.77 9.39671 158.155C9.91713 158.444 10.4954 158.618 11.0736 158.772C11.7097 158.965 12.365 159.119 13.0011 159.273C13.4829 159.389 13.9841 159.466 14.4659 159.562C14.4659 159.562 14.4659 159.562 14.4852 159.562C12.8661 160.488 12.0181 162.743 12.0566 164.651C12.0952 166.154 12.3457 168.178 13.2131 169.45C14.119 170.78 15.6224 171.089 17.1258 170.934C17.9546 170.838 18.8027 170.684 19.6315 170.53C19.8243 170.491 20.0363 170.453 20.229 170.414C20.5182 170.645 20.8458 170.761 21.1928 170.607C23.7756 169.508 25.6645 167.234 26.3776 164.535C26.5318 163.976 26.5897 163.398 26.6282 162.82C26.9752 161.663 27.2064 160.468 27.5148 159.312C27.669 158.734 27.8232 158.175 28.0545 157.635C28.2858 157.057 28.6328 156.536 28.652 155.9C28.652 155.611 28.6135 155.322 28.5171 155.033C28.6135 154.686 28.7291 154.339 28.8255 153.992C29.0375 153.298 28.3822 151.949 27.6112 151.833C27.1679 151.756 26.7824 151.583 26.3969 151.39C26.3005 151.313 26.1849 151.255 26.0885 151.236C25.7223 151.024 25.3561 150.812 24.9706 150.638C24.1225 150.234 23.2166 149.964 22.3107 149.771C22.0601 149.713 21.8096 149.694 21.559 149.655C20.2869 149.212 18.9569 148.904 17.6077 148.73C14.8707 148.402 11.4976 148.46 9.01122 149.809H9.03049ZM17.9546 157.577C17.9546 157.577 17.9354 157.577 17.9161 157.558H17.9546V157.577Z" fill="#E6E4CE"/>
</svg>
