<svg width="137" height="137" viewBox="0 0 137 137" fill="none" xmlns="http://www.w3.org/2000/svg">
<path d="M125.714 92.6018C124.191 96.264 122.264 99.7527 120.028 103.087C117.792 106.364 115.267 109.429 112.491 112.262C109.696 115.057 106.593 117.562 103.317 119.798C99.9821 122.034 96.4934 123.942 92.7734 125.484C89.0534 127.065 85.1792 128.318 81.1893 129.089C73.0555 130.785 64.4204 130.785 56.2287 129.089C52.2967 128.318 48.3647 127.065 44.6447 125.484C40.9825 123.962 37.436 122.034 34.1015 119.798C30.8248 117.62 27.7601 115.037 24.9846 112.262C22.1512 109.429 19.6262 106.364 17.3904 103.087C15.2124 99.7527 13.2464 96.264 11.7044 92.6018C10.1239 88.824 8.90956 84.9498 8.10003 80.9599C7.27122 76.9122 6.84718 72.7104 6.84718 68.5085C6.84718 64.3067 7.2905 60.0855 8.10003 55.9993C8.92884 52.0095 10.1239 48.1353 11.7044 44.4153C13.2271 40.7531 15.1931 37.2066 17.3904 33.8721C19.6262 30.5954 22.1898 27.5307 24.9846 24.7552C27.7794 21.9218 30.8248 19.3968 34.1015 17.161C37.436 14.9251 40.9825 13.0169 44.6447 11.475C48.3647 9.89445 52.2967 8.68015 56.2287 7.87062C60.3342 7.04181 64.5361 6.61776 68.7379 6.61776C72.9398 6.61776 77.1031 7.06108 81.1893 7.87062C85.1792 8.69942 89.0534 9.89445 92.7734 11.475C96.4934 12.9977 99.9821 14.9251 103.317 17.161C106.593 19.3968 109.716 21.9604 112.491 24.7552C115.286 27.55 117.792 30.5954 120.028 33.8721C122.264 37.2066 124.172 40.7531 125.714 44.4153C127.294 48.1353 128.547 52.0673 129.318 55.9993C130.185 60.1048 130.571 64.3067 130.571 68.5085C130.571 72.7104 130.185 76.9315 129.318 80.9599C128.547 84.9498 127.294 88.824 125.714 92.6018ZM68.7187 0.642639C31.2874 0.642639 0.852783 31.0772 0.852783 68.5085C0.852783 105.94 31.2874 136.317 68.7187 136.317C106.15 136.317 136.527 105.882 136.527 68.5085C136.527 31.1351 106.092 0.642639 68.7187 0.642639Z" fill="#E6E4CE"/>
<path d="M56.5949 71.284L52.1232 67.9495L45.3578 73.038L45.5313 79.6492C45.6469 79.5336 45.8011 79.4372 45.9746 79.3216L56.6334 71.284H56.5949Z" fill="#E6E4CE"/>
<path d="M80.7461 71.284L90.9038 78.9361C91.2315 79.2059 91.5013 79.4372 91.829 79.6492L92.0025 73.0959L85.2371 67.9688L80.7654 71.3033L80.7461 71.284Z" fill="#E6E4CE"/>
<path d="M94.6237 51.9902C93.4672 52.4913 92.3878 53.1467 91.347 53.8984L68.6801 70.995L46.0131 53.9562V53.8984C44.9723 53.1274 43.8737 52.4721 42.7365 51.9902L42.4666 42.43L64.2084 58.8134L60.1607 61.8781L64.5939 65.2704L68.6994 62.2057L72.8048 65.2704L77.238 61.8781L73.1325 58.8134L94.8743 42.43L94.6622 51.9902H94.6237ZM112.221 55.3247C110.795 53.8984 109.099 52.7612 107.191 51.9324C105.225 51.1036 103.143 50.6795 100.965 50.6795C100.695 50.6795 100.368 50.6795 100.04 50.7373L100.368 37.0716C100.368 36.2428 100.098 35.7032 99.8278 35.3755C98.9027 34.1805 97.2643 33.9492 96.05 34.8358L68.6801 55.4789L41.3101 34.8358C40.1151 33.9684 38.4768 34.1805 37.5323 35.3755C37.089 35.9152 36.9926 36.5705 36.9926 37.0138L37.3203 50.7181C37.0505 50.6602 36.7228 50.6602 36.4529 50.6602C34.2749 50.6602 32.1933 51.1036 30.2272 51.9131C28.3191 52.7419 26.6229 53.8791 25.1966 55.3054C23.7124 56.7896 22.5752 58.4665 21.8042 60.3939C20.9369 62.3599 20.5514 64.4416 20.5514 66.5618C20.5514 68.682 20.9369 70.8215 21.8042 72.7875C22.5752 74.6379 23.7124 76.334 25.1966 77.8182C26.6229 79.3023 28.3191 80.4395 30.2272 81.2683C32.1933 82.0971 34.2749 82.4633 36.4529 82.4633C36.9926 82.4633 37.5516 82.4633 38.0335 82.4055L38.3611 95.5123C38.3611 95.5123 38.2455 96.6687 38.2455 96.9386C38.072 97.5939 37.7443 98.1336 37.1468 98.6347C36.5493 99.078 35.7205 99.3479 34.7375 99.4057C34.4677 99.4635 34.2364 99.6756 34.2364 99.9454V102.123C34.2364 102.393 34.4484 102.625 34.7375 102.625H47.1889C47.4587 102.625 47.69 102.413 47.69 102.123V99.9454C47.69 99.6756 47.478 99.4443 47.2467 99.4057C46.1481 99.3479 45.3385 99.078 44.741 98.5769C44.2013 98.0758 43.8737 97.5361 43.758 96.9386V96.4952H43.7002L42.9292 60.9722C42.7557 60.7987 42.6015 60.6445 42.4281 60.5288C41.0596 59.1603 39.3056 58.293 37.4552 58.0617L37.8985 76.9701C37.3974 77.0857 36.9155 77.0857 36.4144 77.0857C33.581 77.0857 30.9019 75.9871 28.9358 74.0211C26.9698 71.9972 25.8712 69.3759 25.8712 66.5425C25.8712 63.7092 26.9698 61.0878 28.9358 59.1025C30.9019 57.0787 33.581 55.98 36.4144 55.98C36.7421 55.98 37.0697 55.98 37.3974 56.0379C39.4212 56.2499 41.2716 57.0209 42.8136 58.2159L64.1698 74.2716L45.6469 88.265L45.8204 94.8762L68.6608 77.664L91.5012 94.8762L91.6169 88.265L73.094 74.2716L94.508 58.2159C95.9922 57.0209 97.8426 56.2499 99.9242 56.0379C100.252 56.0379 100.637 55.98 100.965 55.98C103.798 55.98 106.478 57.0787 108.444 59.1025C110.467 61.0685 111.566 63.7477 111.566 66.5425C111.566 69.3373 110.467 71.9972 108.444 74.0211C106.478 75.9871 103.798 77.0857 100.965 77.0857C100.464 77.0857 99.9242 77.0857 99.3845 76.9701L99.8857 58.1195C98.0353 58.3315 96.2813 59.2182 94.9706 60.5288C94.7972 60.7023 94.5852 60.8565 94.4695 61.03L93.6022 96.6494C93.6022 96.6494 93.6021 97.0349 93.5443 97.0928C93.4287 97.6325 93.101 98.1336 92.6191 98.5769C92.0216 99.078 91.1928 99.3479 90.1134 99.4057C89.8436 99.4635 89.6123 99.6177 89.6123 99.9069V102.143C89.6123 102.413 89.8821 102.644 90.1134 102.644H102.623C102.893 102.644 103.124 102.432 103.124 102.143V99.9069C103.124 99.637 102.912 99.4057 102.623 99.4057C101.64 99.3479 100.811 99.078 100.213 98.6347C99.6158 98.1336 99.2303 97.5939 99.1147 96.9386C99.0569 96.6687 98.999 96.2832 98.999 95.7821L99.2689 82.4055C99.8664 82.4633 100.425 82.4633 100.965 82.4633C103.143 82.4633 105.225 82.0779 107.191 81.2683C109.099 80.4395 110.795 79.3023 112.221 77.8182C113.706 76.334 114.843 74.6571 115.672 72.7875C116.5 70.8215 116.924 68.7398 116.924 66.5618C116.924 64.3838 116.481 62.3599 115.672 60.3939C114.843 58.4857 113.706 56.7896 112.221 55.3054V55.3247Z" fill="#E6E4CE"/>
</svg>
